<svg width="24" height="24" viewBox="0 0 24 24" fill="none" xmlns="http://www.w3.org/2000/svg">
<path d="M5.16455 10.8098C5.16455 9.92584 5.33866 9.05054 5.67693 8.23386C6.01521 7.41719 6.51103 6.67514 7.13608 6.05009C7.76114 5.42504 8.50319 4.92921 9.31986 4.59094C10.1365 4.25266 11.0118 4.07855 11.8958 4.07855C12.7798 4.07855 13.6551 4.25266 14.4717 4.59094C15.2884 4.92921 16.0305 5.42504 16.6555 6.05009C17.2806 6.67514 17.7764 7.41719 18.1147 8.23386C18.4529 9.05054 18.627 9.92584 18.627 10.8098V10.8098C18.627 14.1661 19.3302 16.1161 19.9489 17.1848C20.0146 17.2986 20.0493 17.4277 20.0494 17.5591C20.0495 17.6906 20.0151 17.8197 19.9496 17.9337C19.8841 18.0476 19.7898 18.1423 19.6761 18.2083C19.5625 18.2743 19.4335 18.3093 19.302 18.3098H4.48955C4.35812 18.3093 4.22912 18.2743 4.11547 18.2083C4.00183 18.1423 3.90752 18.0476 3.84201 17.9337C3.77649 17.8197 3.74207 17.6906 3.74219 17.5591C3.7423 17.4277 3.77696 17.2986 3.84267 17.1848C4.46142 16.1161 5.16455 14.1661 5.16455 10.8098Z" stroke="#FCFCFC" stroke-width="1.5" stroke-linecap="round" stroke-linejoin="round"/>
<path d="M8.89581 18.3098V19.0598C8.89581 19.8554 9.21188 20.6185 9.77449 21.1811C10.3371 21.7437 11.1002 22.0598 11.8958 22.0598C12.6915 22.0598 13.4545 21.7437 14.0171 21.1811C14.5797 20.6185 14.8958 19.8554 14.8958 19.0598V18.3098" stroke="#FCFCFC" stroke-width="1.5" stroke-linecap="round" stroke-linejoin="round"/>
<path d="M17.0895 2.55975C18.6166 3.5237 19.849 4.88914 20.652 6.50663" stroke="#FCFCFC" stroke-width="1.5" stroke-linecap="round" stroke-linejoin="round"/>
<path d="M3.13953 6.50663C3.94252 4.88914 5.17498 3.5237 6.70203 2.55975" stroke="#FCFCFC" stroke-width="1.5" stroke-linecap="round" stroke-linejoin="round"/>
</svg>
