<svg width="76" height="30" viewBox="0 0 76 30" fill="none" xmlns="http://www.w3.org/2000/svg">
<g clip-path="url(#clip0_888_574)">
<path d="M14.4014 6V8.87715H3.72858V11.897L4.40469 12.6341H14.4014V15.5112H3.39053L1 12.9432V6H14.4014ZM11.6729 19.3157V23.5958H8.82354V19.3157H6.28814V23.5958H3.43882V19.3157H1V16.6526H14.4014V19.3157H11.6729Z" fill="#76E4CB"/>
<path d="M16.0434 15.1071V9.21011L18.6996 6.4043H26.8129L29.4449 9.21011V15.1071L26.8129 17.9129H18.6996L16.0434 15.1071ZM16.0434 24.0001V21.3131H21.2833V18.6738H24.205V21.3131H29.4449V24.0001H16.0434ZM18.772 13.9657L19.8586 15.0357H25.6297L26.7404 13.9657V10.3039L25.7504 9.28144H19.7137L18.772 10.3039V13.9657Z" fill="#76E4CB"/>
<path d="M38.0653 9.82827H31.0627V7.14135H33.091V6H35.9886V7.14135H38.0653V9.82827ZM32.6322 24L31.0627 22.2642V12.3725L32.6322 10.6367H36.4957L38.0653 12.3725V22.2642L36.4957 24H32.6322ZM33.7913 21.1229H35.3367V13.4901H33.7913V21.1229ZM38.8621 24V6.40423H41.7597V13.6803H42.5324V6.40423H45.261V24H42.5324V16.3435H41.7597V24H38.8621Z" fill="white"/>
<path d="M60.3044 6.4043V9.28144H49.6315V12.3013L50.3076 13.0384H60.3044V15.9155H49.2935L46.903 13.3475V6.4043H60.3044ZM57.5758 19.72V24.0001H54.7265V19.72H52.1911V24.0001H49.3418V19.72H46.903V17.0569H60.3044V19.72H57.5758Z" fill="white"/>
<path d="M61.9464 15.1071V9.21011L64.6025 6.4043H72.7158L75.3478 9.21011V15.1071L72.7158 17.9129H64.6025L61.9464 15.1071ZM61.9464 24.0001V21.3131H67.1862V18.6738H70.108V21.3131H75.3478V24.0001H61.9464ZM64.675 13.9657L65.7616 15.0357H71.5326L72.6434 13.9657V10.3039L71.6534 9.28144H65.6167L64.675 10.3039V13.9657Z" fill="white"/>
</g>
<defs>
<clipPath id="clip0_888_574">
<rect width="74.3478" height="18" fill="white" transform="translate(1 6)"/>
</clipPath>
</defs>
</svg>
