<svg width="156" height="38" viewBox="0 0 156 38" fill="none" xmlns="http://www.w3.org/2000/svg">
<g clip-path="url(#clip0_913_11807)">
<path d="M28.0372 0.000854492V6.02015H5.70849V12.3379L7.12298 13.8801H28.0372V19.8993H5.00124L7.62939e-06 14.5268V0.000854492H28.0372ZM22.3288 27.8587V36.8131H16.3677V27.8587H11.0633V36.8131H5.10228V27.8587H7.62939e-06V22.2872H28.0372V27.8587H22.3288Z" fill="#76E4CB"/>
<path d="M31.4724 19.0507V6.71368L37.0294 0.843628H54.0032L59.5097 6.71368V19.0507L54.0032 24.9208H37.0294L31.4724 19.0507ZM31.4724 37.6558V32.0345H42.4347V26.5127H48.5474V32.0345H59.5097V37.6558H31.4724ZM37.1809 16.6629L39.4542 18.9015H51.5279L53.8517 16.6629V9.00201L51.7805 6.86292H39.1511L37.1809 9.00201V16.6629Z" fill="#76E4CB"/>
<path d="M77.5444 8.01H62.8943V2.38867H67.1378V0.000854492H73.1999V2.38867H77.5444V8.01V8.01ZM66.178 37.6588L62.8943 34.0273V13.3328L66.178 9.70137H74.2608L77.5444 13.3328V34.0273L74.2608 37.6588H66.178ZM68.6028 31.6395H71.8359V15.6709H68.6028V31.6395ZM79.2115 37.6588V0.84654H85.2736V16.0689H86.8902V0.84654H92.5986V37.6588H86.8902V21.6405H85.2736V37.6588H79.2115Z" fill="white"/>
<path d="M124.071 0.843628V6.86292H101.742V13.1807L103.157 14.7228H124.071V20.7421H101.035L96.0338 15.3695V0.843628H124.071ZM118.363 28.7015V37.6558H112.402V28.7015H107.097V37.6558H101.136V28.7015H96.0338V23.1299H124.071V28.7015H118.363Z" fill="white"/>
<path d="M127.506 19.0507V6.71368L133.063 0.843628H150.037L155.544 6.71368V19.0507L150.037 24.9208H133.063L127.506 19.0507ZM127.506 37.6558V32.0345H138.469V26.5127H144.581V32.0345H155.544V37.6558H127.506ZM133.215 16.6629L135.488 18.9015H147.562L149.886 16.6629V9.00201L147.814 6.86292H135.185L133.215 9.00201V16.6629V16.6629Z" fill="white"/>
</g>
<defs>
<clipPath id="clip0_913_11807">
<rect width="155.543" height="37.6579" fill="white"/>
</clipPath>
</defs>
</svg>
