<svg width="24" height="24" viewBox="0 0 24 24" fill="none" xmlns="http://www.w3.org/2000/svg">
<path d="M8.25 15.174C10.9424 15.174 13.125 12.9913 13.125 10.299C13.125 7.60656 10.9424 5.42395 8.25 5.42395C5.55761 5.42395 3.375 7.60656 3.375 10.299C3.375 12.9913 5.55761 15.174 8.25 15.174Z" stroke="#FCFCFC" stroke-width="1.5" stroke-miterlimit="10"/>
<path d="M14.5687 5.60208C14.9997 5.48519 15.4441 5.42531 15.8906 5.42395C17.1835 5.42395 18.4235 5.93756 19.3377 6.8518C20.252 7.76604 20.7656 9.00602 20.7656 10.299C20.7656 11.5919 20.252 12.8319 19.3377 13.7461C18.4235 14.6603 17.1835 15.174 15.8906 15.174" stroke="#FCFCFC" stroke-width="1.5" stroke-linecap="round" stroke-linejoin="round"/>
<path d="M1.5 18.6802C2.2612 17.597 3.27191 16.7129 4.44676 16.1025C5.6216 15.4922 6.92608 15.1736 8.25 15.1736C9.57392 15.1736 10.8784 15.4922 12.0532 16.1025C13.2281 16.7129 14.2388 17.597 15 18.6802" stroke="#FCFCFC" stroke-width="1.5" stroke-linecap="round" stroke-linejoin="round"/>
<path d="M15.8906 15.174C17.2147 15.1731 18.5194 15.4914 19.6944 16.1017C20.8693 16.712 21.8799 17.5965 22.6406 18.6802" stroke="#FCFCFC" stroke-width="1.5" stroke-linecap="round" stroke-linejoin="round"/>
</svg>
