<svg width="20" height="20" viewBox="0 0 20 20" fill="none" xmlns="http://www.w3.org/2000/svg">
<path d="M13.7812 14.0905C13.0142 14.788 12.0693 15.26 11.0509 15.4543C10.0324 15.6486 8.9801 15.5577 8.01011 15.1915C7.04012 14.8253 6.19021 14.1982 5.55423 13.3794C4.91826 12.5605 4.52097 11.5819 4.40625 10.5514" stroke="#FCFCFC" stroke-width="1.5" stroke-linecap="round" stroke-linejoin="round"/>
<path d="M12.1016 12.2389C11.5281 12.7643 10.7777 13.0544 10 13.0514V13.0514C9.1712 13.0514 8.37634 12.7222 7.79029 12.1361C7.20424 11.5501 6.875 10.7552 6.875 9.92641V6.48891" stroke="#FCFCFC" stroke-width="1.5" stroke-linecap="round" stroke-linejoin="round"/>
<path d="M10 15.5514V18.0514" stroke="#FCFCFC" stroke-width="1.5" stroke-linecap="round" stroke-linejoin="round"/>
<path d="M3.75 3.05141L16.25 16.8014" stroke="#FCFCFC" stroke-width="1.5" stroke-linecap="round" stroke-linejoin="round"/>
<path d="M7.34375 3.28579C7.62222 2.83151 8.01275 2.45641 8.47789 2.19648C8.94303 1.93655 9.46716 1.80051 10 1.80142V1.80142C10.8288 1.80142 11.6237 2.13066 12.2097 2.71671C12.7958 3.30276 13.125 4.09762 13.125 4.92642V9.64517" stroke="#FCFCFC" stroke-width="1.5" stroke-linecap="round" stroke-linejoin="round"/>
<path d="M15.5938 10.5514C15.5387 11.0386 15.4205 11.5166 15.2422 11.9733" stroke="#FCFCFC" stroke-width="1.5" stroke-linecap="round" stroke-linejoin="round"/>
</svg>
