<svg width="101" height="100" viewBox="0 0 101 100" fill="none" xmlns="http://www.w3.org/2000/svg">
<path d="M50.5 40.623V56.248" stroke="#FCFCFC" stroke-width="4" stroke-linecap="round" stroke-linejoin="round"/>
<path d="M44.7127 15.626L10.3377 75.001C9.79008 75.9495 9.50132 77.0253 9.50035 78.1205C9.49938 79.2157 9.78624 80.292 10.3322 81.2415C10.8781 82.1909 11.664 82.9803 12.6111 83.5304C13.5581 84.0805 14.6331 84.3721 15.7283 84.376H84.4783C85.5736 84.3721 86.6486 84.0805 87.5956 83.5304C88.5427 82.9803 89.3285 82.1909 89.8745 81.2415C90.4204 80.292 90.7073 79.2157 90.7063 78.1205C90.7053 77.0253 90.4166 75.9495 89.869 75.001L55.494 15.626C54.9504 14.6763 54.1657 13.887 53.219 13.338C52.2724 12.7891 51.1976 12.5 50.1033 12.5C49.0091 12.5 47.9342 12.7891 46.9876 13.338C46.041 13.887 45.2562 14.6763 44.7127 15.626V15.626Z" stroke="#FCFCFC" stroke-width="4" stroke-linecap="round" stroke-linejoin="round"/>
<path d="M50.1878 75C52.7766 75 54.8753 72.9013 54.8753 70.3125C54.8753 67.7237 52.7766 65.625 50.1878 65.625C47.599 65.625 45.5003 67.7237 45.5003 70.3125C45.5003 72.9013 47.599 75 50.1878 75Z" fill="#FCFCFC"/>
</svg>
